<svg width="33" height="27" viewBox="0 0 33 27" fill="none" xmlns="http://www.w3.org/2000/svg">
<g clip-path="url(#clip0_3_76)">
<path d="M0 23.9588C3.65522 24.2921 6.88653 23.3978 9.8219 21.162C6.76655 20.8775 4.72699 19.3165 3.57523 16.414C4.59102 16.5279 5.53481 16.5604 6.5506 16.2758C4.95894 15.8693 3.68721 15.0726 2.71142 13.8205C1.74363 12.5766 1.25573 11.1539 1.25573 9.5116C2.18353 9.99127 3.12733 10.3002 4.16711 10.3246C1.23973 7.81241 0.551882 4.81241 2.18353 1.21891C5.83875 5.5929 10.4138 7.99127 15.9726 8.37339C15.9486 7.69859 15.8926 7.04818 15.9086 6.40591C15.9886 3.60103 18.1001 0.94249 20.7716 0.251433C23.243 -0.390843 25.4186 0.186393 27.2822 1.96688C27.4181 2.09696 27.5381 2.13761 27.7301 2.08883C29.1138 1.77989 30.4095 1.26769 31.7212 0.495336C31.1933 2.10509 30.2575 3.27582 28.9618 4.18639C30.2175 4.07257 31.3933 3.69859 32.625 3.20265C31.7692 4.47908 30.8174 5.55225 29.6576 6.42217C29.3617 6.64168 29.2897 6.86932 29.2977 7.23517C29.3617 10.3653 28.6819 13.3327 27.3461 16.1376C25.7465 19.5116 23.419 22.2433 20.2757 24.2189C18.0361 25.6254 15.5967 26.4628 12.9892 26.8205C10.7017 27.1295 8.4222 27.0563 6.16668 26.5604C4.01514 26.0888 2.00757 25.2514 0.143969 24.0726C0.119974 24.0563 0.0959794 24.0319 0 23.9588Z" fill="black"/>
</g>
<defs>
<clipPath id="clip0_3_76">
<rect width="32.625" height="27" fill="white"/>
</clipPath>
</defs>
</svg>
