<svg width="33" height="27" viewBox="0 0 33 27" fill="none" xmlns="http://www.w3.org/2000/svg">
<g clip-path="url(#clip0_3_80)">
<path d="M32.4187 2.09566C32.2327 2.94944 32.0383 3.79478 31.8523 4.64857C30.466 11.1323 29.0796 17.6245 27.7017 24.1082C27.6003 24.59 27.5073 25.0803 27.3805 25.5537C26.9156 27.3374 25.6137 27.2275 24.6078 26.5005C22.5367 25.0127 20.491 23.4911 18.4284 21.9864C18.1241 21.7581 17.8028 21.5468 17.5154 21.3101C17.3464 21.1749 17.2449 21.1918 17.0928 21.3355C15.9008 22.4851 14.7005 23.6263 13.5085 24.7675C13.1535 25.1057 12.7477 25.317 12.2067 25.3001C12.2405 24.8352 12.2659 24.3871 12.2997 23.9391C12.4434 21.9695 12.5787 20.0083 12.7308 18.0387C12.7393 17.8865 12.8407 17.7005 12.9506 17.5906C17.414 13.5669 21.8943 9.55151 26.3745 5.52772C26.4253 5.477 26.5013 5.43473 26.5352 5.37556C26.6112 5.2403 26.662 5.08814 26.7211 4.94444C26.569 4.90217 26.3999 4.80073 26.2647 4.83454C26.0111 4.89371 25.7659 5.00361 25.5461 5.13886C19.9669 8.62164 14.3961 12.1044 8.82538 15.5957C8.61405 15.7225 8.44498 15.7394 8.21674 15.6717C5.88361 14.9363 3.55049 14.2262 1.22581 13.4823C0.921492 13.3893 0.617171 13.2372 0.355117 13.0512C-0.0675507 12.7469 -0.126724 12.2989 0.253677 11.9438C0.566451 11.6479 0.946852 11.3774 1.34416 11.2253C3.66038 10.3039 5.99351 9.42471 8.32663 8.53711C15.605 5.7475 22.8749 2.9579 30.1532 0.176746C30.3899 0.0837589 30.635 0.0161321 30.8886 -0.00077463C31.6494 -0.0599481 32.1566 0.320453 32.3511 1.05589C32.368 1.12352 32.3933 1.19115 32.4187 1.26723C32.4187 1.54619 32.4187 1.82515 32.4187 2.09566Z" fill="black"/>
</g>
<defs>
<clipPath id="clip0_3_80">
<rect width="32.4186" height="27" fill="white"/>
</clipPath>
</defs>
</svg>
