<svg width="168" height="35" viewBox="0 0 168 35" fill="none" xmlns="http://www.w3.org/2000/svg">
<path d="M54.1548 11.4736H49.4219V7.07031H63.8184V11.4736H59.0986V25H54.1548V11.4736Z" fill="black"/>
<path d="M77.5377 18.1313C77.5377 18.4917 77.507 18.8784 77.4454 19.2915H67.8478C68.1115 20.689 68.9245 21.3877 70.2868 21.3877C71.2975 21.3877 71.9347 21.0449 72.1984 20.3594H77.3004C77.1159 21.2119 76.716 22.0293 76.1007 22.8115C75.4943 23.585 74.6989 24.2222 73.7145 24.7231C72.7301 25.2153 71.6183 25.4614 70.379 25.4614C68.9464 25.4614 67.6676 25.1318 66.5426 24.4727C65.4264 23.8135 64.5563 22.9258 63.9323 21.8096C63.317 20.6846 63.0094 19.4585 63.0094 18.1313C63.0094 16.7954 63.317 15.5693 63.9323 14.4531C64.5563 13.3281 65.4264 12.436 66.5426 11.7769C67.6588 11.1177 68.9376 10.7881 70.379 10.7881C71.8204 10.7881 73.0817 11.1177 74.1627 11.7769C75.2526 12.4272 76.0875 13.3105 76.6676 14.4268C77.2477 15.543 77.5377 16.7778 77.5377 18.1313ZM72.6071 16.2988C72.5455 15.7891 72.3082 15.3804 71.8952 15.0728C71.4821 14.7563 70.9943 14.5981 70.4318 14.5981C69.8869 14.5981 69.4035 14.73 68.9816 14.9937C68.5597 15.2573 68.2389 15.6924 68.0192 16.2988H72.6071Z" fill="black"/>
<path d="M83.9513 11.2495V12.7129C84.2853 12.2559 84.6764 11.8999 85.1246 11.645C85.5729 11.3813 86.1354 11.2495 86.8121 11.2495H88.5128V15.3364H87.089C86.131 15.3364 85.4059 15.6265 84.9137 16.2065C84.4215 16.7778 84.1754 17.6216 84.1754 18.7378V25H79.337V11.2495H83.9513Z" fill="black"/>
<path d="M94.7355 11.2495V12.7129C95.0695 12.2559 95.4606 11.8999 95.9088 11.645C96.3571 11.3813 96.9196 11.2495 97.5963 11.2495H99.297V15.3364H97.8732C96.9152 15.3364 96.1901 15.6265 95.6979 16.2065C95.2057 16.7778 94.9596 17.6216 94.9596 18.7378V25H90.1212V11.2495H94.7355Z" fill="black"/>
<path d="M106.179 25.4746C104.992 25.4746 103.924 25.145 102.975 24.4858C102.035 23.8267 101.301 22.939 100.774 21.8228C100.246 20.6978 99.9825 19.4673 99.9825 18.1313C99.9825 16.8042 100.246 15.5781 100.774 14.4531C101.31 13.3281 102.048 12.436 102.988 11.7769C103.929 11.1177 104.984 10.7881 106.152 10.7881C107.084 10.7881 107.897 10.9375 108.591 11.2363C109.295 11.5264 109.848 11.9526 110.253 12.5151V11.2495H114.814V25H110.239V23.7607C109.835 24.3145 109.286 24.7363 108.591 25.0264C107.897 25.3252 107.093 25.4746 106.179 25.4746ZM107.392 21.0449C107.893 21.0449 108.345 20.9175 108.75 20.6626C109.154 20.4077 109.47 20.0562 109.699 19.6079C109.927 19.1597 110.042 18.6631 110.042 18.1182C110.042 17.5908 109.923 17.1074 109.686 16.668C109.457 16.2197 109.141 15.8682 108.736 15.6133C108.332 15.3496 107.888 15.2178 107.405 15.2178C106.913 15.2178 106.464 15.332 106.06 15.5605C105.665 15.7803 105.348 16.1099 105.111 16.5493C104.874 16.98 104.755 17.5029 104.755 18.1182C104.755 18.7686 104.874 19.3135 105.111 19.7529C105.357 20.1924 105.678 20.5176 106.073 20.7285C106.478 20.9395 106.917 21.0449 107.392 21.0449Z" fill="black"/>
<path d="M129.448 25.4746C128.068 25.4746 126.912 25.2329 125.981 24.7495C125.049 24.2661 124.359 23.6377 123.911 22.8643C123.471 22.0908 123.252 21.2603 123.252 20.3726L127.879 20.3989C127.914 20.8208 128.059 21.146 128.314 21.3745C128.569 21.5942 128.96 21.7041 129.487 21.7041C129.944 21.7041 130.261 21.6338 130.437 21.4932C130.621 21.3438 130.713 21.1416 130.713 20.8867C130.713 20.6406 130.564 20.4517 130.265 20.3198C129.975 20.188 129.479 20.0825 128.776 20.0034C127.246 19.8276 126.016 19.3706 125.084 18.6323C124.152 17.8853 123.687 16.813 123.687 15.4155C123.687 13.9302 124.183 12.7876 125.176 11.9878C126.17 11.188 127.549 10.7881 129.316 10.7881C130.485 10.7881 131.522 10.9902 132.427 11.3945C133.333 11.7988 134.036 12.3745 134.537 13.1216C135.047 13.8599 135.301 14.7168 135.301 15.6924L130.582 15.666C130.538 15.0068 130.125 14.6772 129.342 14.6772C128.718 14.6772 128.406 14.8838 128.406 15.2969C128.406 15.4902 128.446 15.6309 128.525 15.7188C128.604 15.8066 128.784 15.8857 129.066 15.9561C129.347 16.0176 129.843 16.1011 130.555 16.2065C131.724 16.3735 132.678 16.624 133.416 16.958C134.163 17.292 134.721 17.7534 135.09 18.3423C135.468 18.9312 135.657 19.6826 135.657 20.5967C135.657 21.6777 135.38 22.5874 134.827 23.3257C134.282 24.0552 133.539 24.5957 132.599 24.9473C131.667 25.2988 130.617 25.4746 129.448 25.4746Z" fill="black"/>
<path d="M144.134 25.4614C142.104 25.4614 140.465 24.9165 139.217 23.8267C137.969 22.7368 137.345 20.9922 137.345 18.5928V11.2495H142.13V18.4346C142.13 19.2695 142.284 19.9111 142.592 20.3594C142.908 20.7988 143.422 21.0186 144.134 21.0186C144.864 21.0186 145.382 20.7944 145.69 20.3462C145.998 19.8892 146.151 19.252 146.151 18.4346V11.2495H150.937V18.5928C150.937 20.9922 150.313 22.7368 149.065 23.8267C147.817 24.9165 146.173 25.4614 144.134 25.4614Z" fill="black"/>
<path d="M158.043 11.2495V12.4888C158.447 11.9702 159.001 11.5571 159.704 11.2495C160.416 10.9419 161.198 10.7881 162.051 10.7881C163.879 10.7881 165.246 11.3945 166.151 12.6074C167.056 13.8115 167.509 15.4946 167.509 17.6567V25H162.684V17.7622C162.684 16.0571 162.011 15.2046 160.667 15.2046C159.981 15.2046 159.41 15.4639 158.953 15.9824C158.505 16.501 158.28 17.292 158.28 18.3555V25H153.455V11.2495H158.043Z" fill="black"/>
<path d="M35 17.5C35 27.165 27.165 35 17.5 35C7.83502 35 0 27.165 0 17.5C0 7.83502 7.83502 0 17.5 0C27.165 0 35 7.83502 35 17.5Z" fill="url(#paint0_angular_48_323)"/>
<defs>
<radialGradient id="paint0_angular_48_323" cx="0" cy="0" r="1" gradientUnits="userSpaceOnUse" gradientTransform="translate(17.5 17.5) rotate(90) scale(17.5)">
<stop stop-color="#FFC803"/>
<stop offset="1" stop-color="#FFB803" stop-opacity="0.1"/>
</radialGradient>
</defs>
</svg>
